<svg width="13" height="14" viewBox="0 0 13 14" fill="none" xmlns="http://www.w3.org/2000/svg">
<g clip-path="url(#clip0_2_562)">
<path d="M9.82153 6.64844C9.92049 6.7474 9.96997 6.86458 9.96997 7C9.96997 7.13542 9.92049 7.2526 9.82153 7.35156L5.57153 11.6016C5.47257 11.7005 5.35539 11.75 5.21997 11.75C5.08455 11.75 4.96737 11.7005 4.86841 11.6016C4.76945 11.5026 4.71997 11.3854 4.71997 11.25V9H1.21997C1.08455 9 0.967367 8.95052 0.868408 8.85156C0.76945 8.7526 0.719971 8.63542 0.719971 8.5V5.5C0.719971 5.36458 0.76945 5.2474 0.868408 5.14844C0.967367 5.04948 1.08455 5 1.21997 5H4.71997V2.75C4.71997 2.61458 4.76945 2.4974 4.86841 2.39844C4.96737 2.29948 5.08455 2.25 5.21997 2.25C5.35539 2.25 5.47257 2.29948 5.57153 2.39844L9.82153 6.64844ZM12.72 4.25V9.75C12.72 10.3698 12.4999 10.8997 12.0598 11.3398C11.6197 11.7799 11.0898 12 10.47 12H7.96997C7.90226 12 7.84367 11.9753 7.79419 11.9258C7.74471 11.8763 7.71997 11.8177 7.71997 11.75C7.71997 11.7292 7.71737 11.6771 7.71216 11.5938C7.70695 11.5104 7.70565 11.4414 7.70825 11.3867C7.71086 11.332 7.71867 11.2708 7.73169 11.2031C7.74471 11.1354 7.77075 11.0846 7.80981 11.0508C7.84888 11.0169 7.90226 11 7.96997 11H10.47C10.8137 11 11.108 10.8776 11.3528 10.6328C11.5976 10.388 11.72 10.0938 11.72 9.75V4.25C11.72 3.90625 11.5976 3.61198 11.3528 3.36719C11.108 3.1224 10.8137 3 10.47 3H8.21997C8.21476 3 8.18612 3 8.13403 3C8.08195 3 8.0481 3 8.03247 3C8.01685 3 7.9869 2.9974 7.94263 2.99219C7.89836 2.98698 7.86841 2.97917 7.85278 2.96875C7.83716 2.95833 7.81632 2.94401 7.79028 2.92578C7.76424 2.90755 7.74601 2.88411 7.7356 2.85547C7.72518 2.82682 7.71997 2.79167 7.71997 2.75C7.71997 2.72917 7.71737 2.67708 7.71216 2.59375C7.70695 2.51042 7.70565 2.44141 7.70825 2.38672C7.71086 2.33203 7.71867 2.27083 7.73169 2.20312C7.74471 2.13542 7.77075 2.08464 7.80981 2.05078C7.84888 2.01693 7.90226 2 7.96997 2H10.47C11.0898 2 11.6197 2.22005 12.0598 2.66016C12.4999 3.10026 12.72 3.63021 12.72 4.25Z" fill="#041E37"/>
</g>
<defs>
<clipPath id="clip0_2_562">
<rect width="12" height="14" fill="white" transform="matrix(1 0 0 -1 0.719971 14)"/>
</clipPath>
</defs>
</svg>
