<?xml version="1.0" encoding="utf-8"?>
<!-- Generator: Adobe Illustrator 23.0.2, SVG Export Plug-In . SVG Version: 6.00 Build 0)  -->
<svg version="1.1" id="Layer_1" xmlns="http://www.w3.org/2000/svg" xmlns:xlink="http://www.w3.org/1999/xlink" x="0px" y="0px"
	 viewBox="0 0 200 200" style="enable-background:new 0 0 200 200;" xml:space="preserve">
<style type="text/css">
	.st0{fill:url(#SVGID_1_);}
</style>
<linearGradient id="SVGID_1_" gradientUnits="userSpaceOnUse" x1="78.6989" y1="-12.9606" x2="113.301" y2="170.5357">
	<stop  offset="0.0397" style="stop-color:#11CDEF"/>
	<stop  offset="1" style="stop-color:#DCF88C"/>
</linearGradient>
<path class="st0" d="M53.73,190.1l5.56,0.01c5.58-0.28,14.25-1.52,20.76-6.13c4.98-3.53,5.62-10.69,1.3-15.01l-31.29-31.29
	l-5.77,8.91l-9.96-40.89l38.8,8.39l-4.72,6.82l60.9,61.91c4.64,4.72,10.99,7.38,17.61,7.38h9.11c18.86,0,34.14-15.29,34.14-34.14
	V43.97c0-18.86-15.29-34.14-34.14-34.14h-23.09c-1.7,0-3.38,0.3-4.96,0.93c-3.6,1.45-7.24,3.63-10.07,6.91
	c-2.31,2.68-2.04,6.73,0.46,9.23l33.38,33.38l5.77-8.91l9.96,40.89l-38.8-8.39l4.72-6.82L74.92,17.6
	c-4.89-4.97-11.57-7.77-18.55-7.77H43.97c-18.86,0-34.14,15.29-34.14,34.14v112.06c0,18.86,15.29,34.14,34.14,34.14 M152.02,152.02
	L152.02,152.02c-4.37,5.78-7.58,9.41-12.01,4.97L48.34,65.32c-4.43-4.43-5.15-11.64-1.16-16.47c4.58-5.55,12.81-5.84,17.78-0.87
	l87.06,87.06C156.71,139.73,156.71,147.33,152.02,152.02z"/>
</svg>
