<svg width="15" height="14" viewBox="0 0 15 14" fill="none" xmlns="http://www.w3.org/2000/svg">
<g clip-path="url(#clip0_2_556)">
<path d="M4.78125 0.554688C4.78125 0.554688 4.9974 0.462239 5.42969 0.277344C5.86198 0.0924482 6.55208 0 7.5 0C8.44792 0 9.35417 0.184896 10.2188 0.554688C11.0833 0.924479 11.8281 1.42188 12.4531 2.04688C13.0781 2.67188 13.5755 3.41667 13.9453 4.28125C14.3151 5.14583 14.5 6.05208 14.5 7C14.5 7.94792 14.3151 8.85417 13.9453 9.71875C13.5755 10.5833 13.0781 11.3281 12.4531 11.9531C11.8281 12.5781 11.0833 13.0755 10.2188 13.4453C9.35417 13.8151 8.44792 14 7.5 14C6.55208 14 5.64583 13.8151 4.78125 13.4453C3.91667 13.0755 3.17188 12.5781 2.54688 11.9531C1.92188 11.3281 1.42448 10.5833 1.05469 9.71875C0.684896 8.85417 0.5 7.94792 0.5 7C0.5 6.05208 0.684896 5.14583 1.05469 4.28125C1.42448 3.41667 1.92188 2.67188 2.54688 2.04688C3.17188 1.42188 3.91667 0.924479 4.78125 0.554688ZM10.3203 1.70312C9.42969 1.23438 8.48958 1 7.5 1C6.51042 1 5.57031 1.23438 4.67969 1.70312L6.19531 3.21875C6.6224 3.07292 7.05729 3 7.5 3C7.94271 3 8.3776 3.07292 8.80469 3.21875L10.3203 1.70312ZM2.20312 9.82031L3.71875 8.30469C3.57292 7.8776 3.5 7.44271 3.5 7C3.5 6.55729 3.57292 6.1224 3.71875 5.69531L2.20312 4.17969C1.73438 5.07031 1.5 6.01042 1.5 7C1.5 7.98958 1.73438 8.92969 2.20312 9.82031ZM4.67969 12.2969C5.57031 12.7656 6.51042 13 7.5 13C8.48958 13 9.42969 12.7656 10.3203 12.2969L8.80469 10.7812C8.3776 10.9271 7.94271 11 7.5 11C7.05729 11 6.6224 10.9271 6.19531 10.7812L4.67969 12.2969ZM5.37891 9.12109C5.37891 9.12109 5.52539 9.26758 5.81836 9.56055C6.11133 9.85352 6.67188 10 7.5 10C8.32812 10 9.03516 9.70703 9.62109 9.12109C10.207 8.53516 10.5 7.82812 10.5 7C10.5 6.17188 10.207 5.46484 9.62109 4.87891C9.03516 4.29297 8.32812 4 7.5 4C6.67188 4 5.96484 4.29297 5.37891 4.87891C4.79297 5.46484 4.5 6.17188 4.5 7C4.5 7.82812 4.79297 8.53516 5.37891 9.12109ZM11.2812 8.30469L12.7969 9.82031C13.2656 8.92969 13.5 7.98958 13.5 7C13.5 6.01042 13.2656 5.07031 12.7969 4.17969L11.2812 5.69531C11.4271 6.1224 11.5 6.55729 11.5 7C11.5 7.44271 11.4271 7.8776 11.2812 8.30469Z" fill="#041E37"/>
</g>
<defs>
<clipPath id="clip0_2_556">
<rect width="14" height="14" fill="white" transform="matrix(1 0 0 -1 0.5 14)"/>
</clipPath>
</defs>
</svg>
