<svg xmlns="http://www.w3.org/2000/svg" viewBox="0 0 100 100"><linearGradient id="prefix__a" gradientUnits="userSpaceOnUse" x1="39.091" y1="65.427" x2="39.091" y2="5"><stop offset=".04" stop-color="#06cff1"/><stop offset="1" stop-color="#defa8e"/></linearGradient><path d="M9.76 58.66c.56-1.85 1.28-3.63 2.13-5.34-.09-1.1-.15-2.2-.15-3.32 0-21.1 17.16-38.26 38.26-38.26 6.88 0 13.33 1.83 18.92 5.03l4.26-5.32A44.71 44.71 0 0050 5C25.19 5 5 25.19 5 50c0 5.42.96 10.61 2.73 15.43l2.03-6.77z" fill="url(#prefix__a)"/><linearGradient id="prefix__b" gradientUnits="userSpaceOnUse" x1="60.909" y1="95" x2="60.909" y2="34.573"><stop offset=".04" stop-color="#06cff1"/><stop offset="1" stop-color="#defa8e"/></linearGradient><path d="M90.24 41.34c-.56 1.85-1.28 3.63-2.13 5.33.09 1.1.15 2.2.15 3.32 0 21.1-17.16 38.26-38.26 38.26-6.88 0-13.33-1.83-18.92-5.03l-4.26 5.32C33.59 92.64 41.53 95 50 95c24.81 0 45-20.19 45-45 0-5.42-.96-10.61-2.72-15.43l-2.04 6.77z" fill="url(#prefix__b)"/><linearGradient id="prefix__c" gradientUnits="userSpaceOnUse" x1="31.392" y1="50" x2="68.608" y2="50"><stop offset=".04" stop-color="#06cff1"/><stop offset="1" stop-color="#defa8e"/></linearGradient><path d="M56.09 40.72h10.14c.99 0 1.72.45 2.14 1.33.42.89.28 1.75-.34 2.5-1.19 1.45-2.39 2.88-3.59 4.32-6.52 7.82-13.04 15.64-19.55 23.46-.64.77-1.45 1.1-2.42.89-.86-.18-1.47-.75-1.68-1.61-.1-.42-.1-.91-.01-1.34 1.29-5.89 2.6-11.77 3.9-17.65.02-.07.02-.14.04-.29h-.66c-3.42 0-6.84.01-10.25 0-1.37 0-2.37-.84-2.42-2.13-.02-.53.17-1.12.43-1.59 3.6-6.54 7.28-13.03 10.82-19.6.91-1.68 2.01-2.35 3.92-2.3 4.18.13 8.36.04 12.54.04 1.39 0 2.38.8 2.46 2.09.03.49-.12 1.05-.35 1.5-1.6 3.26-3.23 6.5-4.85 9.75-.07.19-.15.37-.27.63z" fill="url(#prefix__c)"/></svg>